<?xml version="1.0" encoding="UTF-8"?>
<svg xmlns="http://www.w3.org/2000/svg" version="1.1" xmlns:xlink="http://www.w3.org/1999/xlink" width="38px" height="29px"
     x="0" y="0" viewBox="0 0 68 68" style="enable-background:new 0 0 512 512" xml:space="preserve"
     class=""><g><path d="M63.5 43.5c-.3-3.5-1.9-7.2-4.8-10.7C46.3 17.4 18 12.5 7.1 23.5c-.1-.1-.2-.3-.4-.4-1.9-1.2-3.7 1.3-4.5 3.4-.1.2-.2.6-.1 1.1.1.6.7 1.2 1.7 1.3-.7 2.5-.8 4.9.1 7.9.7 2.8 2.2 5.6 3.9 7.9 2.2 2.9 4.8 5.5 7.8 7.6 1.8 1.3 3.8 2.4 5.7 3.5 4.7 2.7 6.3 3.3 12.8 3.9 7.3.7 14.5 1.4 20.8-2.5 3.7-1.8 6.5-4.4 7.8-7.8.6.3 1.4.4 2 .2.6-.3 1.1-.9 1.2-1.7.1-.6.1-1.2 0-1.7-.1-.6-.1-1.4-.6-2-.4-.4-1.1-.7-1.8-.7zM11.6 22c3 .7 6.1 3.7 6.8 6.7-.4.2-.8.4-1.1.6-1.3-3.2-4.3-5.5-8-5.8.7-.6 1.4-1.1 2.3-1.5zm-3.9 3c3.5-.4 6.9 1.6 8.3 5-.4-.1-.7.1-.9.5-1.2 3.5 5.1 8.2 12.7 11.5-1.3 2.9-2.4 6-3.4 9.1-3-1.2-5.7-2.7-8.1-4.4-5.8-4-9.8-9.4-11.5-15.3.3-2.4 1.3-4.5 2.9-6.4zM5.5 37c2.2 4.1 5.6 7.9 9.9 10.9 2.5 1.7 5.4 3.3 8.5 4.5-.2.5-.4 1.1-.6 1.6-9-4-15.6-10.5-17.8-17zm25.7 19.9c.2-.6.4-1.2.5-1.8 6.6 1.8 13.9 3 20.5 1.6-5.6 2.1-13.1 2.3-21 .2zm-1.8.5c-.1 0-.1.1 0 0-.3.1-4.2-.7-4.7-1.5 0-.1-.1-.2-.1-.3s.1-.1.1-.2c1-3.8 2.5-8.4 4.5-12.9 1.9.8 3.4 1.3 5 1.7-1.4 4.3-4.9 12.6-4.8 13.2zM17 33l.1-.1c.8-.8.9-1.4 2.2-2 3.4-1.4 7.2-.9 10.8-.2 4.1.8 8.1 1.8 11.8 3.8s6.8 5 8.3 8.8c.1.3.3.6.6.8-1 .4-2.6.7-5.1.7C34.4 44.5 20.1 37.7 17 33zm34.8 8.8c-.2-.5-.4-1.1-.7-1.6 1.1-1.4 3.4-2.2 5.1-2.3 1.8-.1 3.6.6 4.9 1.9 0 0 .1 0 .1.1.4 1.1.7 2.1.8 3.1-2.8-2.5-6.4-3.1-10.2-1.2zm8.1-4.7c-1.2-.6-2.5-.8-3.9-.7-1.8.1-4.3.9-5.9 2.5-2-2.7-5.5-5.2-10.4-7.4 1.5-2.9 2.4-5.7 2.8-8.6 7 2.9 13.8 7.8 17.4 14.2zM41.1 22.3c-.2 1-.2 4-2.7 8.6-1.8-.7-3-1.1-4-1.5 1.5-2.6 2.5-5.5 2.7-8.5 2.2.6 3 .9 4 1.4zm-5.5-1.9c-.2 3-1.1 6-2.7 8.5-4.6-1.3-9.4-1.7-13.1-.8-.8-3-3.4-5.9-6.3-7.2 5.8-2.3 13.8-2.6 22.1-.5zm-32 6.9c0-.3 1.1-2.8 2-3 .2 0 .3 0 .4.1 0 .1.1.2.1.3-.7.8-1.2 1.8-1.7 2.7-.8.1-.7 0-.8-.1zm55.6 25c-1.3.2-7 6.7-26.9 1.4 1.2-3.1 2.3-5.9 3.3-9 3.3.9 7.2 1.6 10.7 1.6 2.9 0 6.3-.5 7.1-2.7.1-.3 0-.6-.2-.8 1.4-.6 2.8-.8 4.1-.5 1.8.3 3.5 1.3 4.7 2.8l.2.2c-.2 2.5-1.2 5-3 7zm5.2-4.6c-.1.3-.2.6-.4.6s-.7-.1-.9-.2c.3-1 .4-2.1.5-3.2.1 0 .3.1.4.2.2.3.3.8.3 1.3.1.5.2 1 .1 1.3zM13.7 10.3c-.4.1-.6.6-.5 1 .6 1.6 1.5 3.1 2.7 4.2.3.3.8.3 1.1 0s.3-.8 0-1.1c-1-1-1.8-2.3-2.3-3.6-.2-.4-.6-.6-1-.5zM19.9 8.4l-.2 6.3c0 .5.4.8.8.8s.7-.2.7-.7l.2-6.3c0-.4-.3-.8-.7-.8-.5-.1-.8.2-.8.7z" fill="#3d5da8" opacity="1" data-original="#000000" class=""></path><path
        d="m27.9 12.5-1.6 3c-.2.4-.1.8.3 1s.8.1 1-.3l1.6-3c.2-.4.1-.8-.3-1-.3-.3-.8-.1-1 .3z" fill="#3d5da8" opacity="1"
        data-original="#000000" class=""></path></g></svg>