<?xml version="1.0" standalone="no"?>
<!DOCTYPE svg PUBLIC "-//W3C//DTD SVG 20010904//EN"
 "http://www.w3.org/TR/2001/REC-SVG-20010904/DTD/svg10.dtd">
<svg version="1.0" xmlns="http://www.w3.org/2000/svg"
 width="512.000000pt" height="512.000000pt" viewBox="0 0 512.000000 512.000000"
 preserveAspectRatio="xMidYMid meet">

<g transform="translate(0.000000,512.000000) scale(0.100000,-0.100000)"
fill="#3c5da8" stroke="none">
<path d="M2280 4475 c-200 -22 -394 -66 -576 -129 -182 -64 -1385 -535 -1437
-563 -64 -36 -157 -128 -195 -196 -51 -91 -66 -151 -66 -267 l1 -105 156 -465
157 -465 0 -198 0 -198 -29 -57 c-93 -184 -49 -366 133 -547 301 -300 941
-537 1704 -632 192 -24 672 -24 864 0 763 95 1403 332 1704 632 182 181 226
363 133 547 l-29 57 0 198 0 198 156 465 157 465 1 105 c0 116 -14 176 -66
267 -38 68 -131 160 -195 196 -52 28 -1255 499 -1437 563 -354 123 -765 170
-1136 129z m530 -160 c159 -16 347 -55 480 -97 99 -32 1368 -522 1455 -562 65
-30 126 -85 159 -140 37 -63 60 -159 52 -220 -3 -27 -71 -247 -152 -488 l-146
-438 -57 0 c-79 0 -108 -27 -101 -95 3 -35 35 -57 89 -63 l51 -5 0 -133 0
-134 -2080 0 -2080 0 0 135 0 135 1835 0 c1960 0 1881 -2 1899 45 12 32 6 69
-16 92 l-21 23 -1858 0 -1857 0 -146 438 c-81 241 -149 461 -152 488 -8 61 15
157 52 220 33 55 94 110 159 140 87 40 1356 530 1455 562 301 96 660 131 980
97z"/>
<path d="M2485 4055 c-50 -17 -107 -80 -124 -135 -24 -81 17 -191 88 -233 30
-18 31 -20 31 -98 l0 -79 -58 0 c-48 0 -62 -4 -80 -23 -27 -29 -29 -77 -3
-108 14 -18 31 -23 80 -27 l61 -4 0 -294 0 -293 -59 20 c-69 24 -134 76 -162
131 -12 23 -23 69 -26 111 -3 40 -10 80 -15 90 -5 10 -44 35 -85 55 -70 33
-78 35 -102 21 -64 -36 -65 -104 -1 -147 31 -20 37 -32 51 -95 30 -140 95
-224 221 -287 44 -22 87 -40 96 -40 9 0 39 -25 67 -55 39 -42 60 -57 88 -62
35 -5 40 -3 96 56 32 33 65 61 73 61 7 0 45 15 83 34 133 64 205 153 235 293
13 63 19 75 50 95 64 43 63 111 -1 147 -24 14 -32 12 -102 -21 -41 -20 -80
-45 -85 -55 -5 -10 -12 -50 -15 -90 -10 -123 -68 -198 -186 -240 l-61 -22 0
293 0 294 61 4 c72 5 99 28 99 83 0 49 -37 75 -106 75 l-54 0 0 79 c0 78 1 80
31 98 17 10 43 37 59 61 112 168 -52 375 -245 307z m110 -169 c23 -34 5 -66
-35 -66 -40 0 -58 32 -35 66 8 13 24 24 35 24 11 0 27 -11 35 -24z"/>
</g>
</svg>
