<?xml version="1.0" encoding="UTF-8"?>
<svg xmlns="http://www.w3.org/2000/svg" id="Calque_1" viewBox="0 0 65 50">
    <defs>
        <style>.cls-1{fill:#3d5da8;}</style>
    </defs>
    <path class="cls-1"
          d="M44.15,23.53c-2.18-.38-4.59.18-6.97,1.61-.4.24-.76.48-1.09.71-.68-.8-1.42-1.61-2.21-2.41-.87-.87-1.75-1.67-2.62-2.4.28-.45.56-.95.83-1.48,1.65-3.3,1.87-6.41.63-8.98-.15-.32-.53-.45-.85-.3-.32.15-.45.53-.3.85,1.54,3.21.1,6.76-1.32,9.11-.84-.64-1.65-1.19-2.42-1.63-2.14-1.23-3.63-1.46-4.42-.67-.02.02-.05.05-.07.07-.08.07-.15.15-.19.25l-.06.15s-.01.03-.02.05l-3,7.19s0,0,0,0v.02s-3.63,8.68-3.63,8.68c0,0,0,0,0,0l-1.77,4.25s0,0,0,0l-2.29,5.5c-.1.24-.05.52.14.7.12.12.29.19.45.19.08,0,.17-.02.25-.05l7.08-2.95s0,0,0,0l5.62-2.34s0,0,0,0l5.94-2.48s0,0,0,0l6.51-2.71s0,0,0,0l.7-.29c.1-.04.19-.11.26-.19.02-.02.05-.04.07-.06.79-.79.56-2.27-.67-4.42-.48-.84-1.1-1.73-1.81-2.65,1.65-1.17,4.28-2.54,7.03-2.06.35.06.68-.17.74-.52.06-.35-.17-.68-.52-.74ZM14.16,43.17l1.41-3.38c.96.58,1.93,1.11,2.9,1.58l-4.3,1.79ZM25.65,38.38c-1.56-.56-3.15-1.27-4.71-2.12-.31-.17-.7-.05-.87.26-.17.31-.05.7.26.87,1.19.65,2.4,1.22,3.6,1.71l-3.87,1.61c-1.33-.6-2.67-1.31-3.99-2.11l1.26-3.02c.25.17.5.33.75.49.3.19.69.1.88-.2.19-.3.1-.69-.2-.88-.31-.2-.62-.4-.93-.61l1.29-3.08c3.48,2.52,7.01,4.34,10.54,5.43l-4,1.67ZM31.56,35.92c-3.98-.98-7.99-2.95-11.94-5.84l1.3-3.15c2.34,1.83,4.74,3.37,7.14,4.56.32.16.7.03.86-.29.16-.32.03-.7-.29-.86-2.42-1.2-4.84-2.76-7.2-4.64l1.96-4.7c.05.12.1.23.16.35,0,0,0,0,0,0,.02.05.05.11.08.16,0,.01.01.02.02.03.02.05.05.09.07.14,0,.02.02.03.03.05.02.04.05.09.07.13.01.02.02.04.03.06.02.05.05.09.08.14.01.02.02.04.03.06.03.06.07.12.1.18,0,0,0,.01.01.02,0,0,0,0,0,.01,0,.01.01.02.02.03.03.05.06.11.09.16.01.02.03.05.04.07.04.06.08.13.12.2.03.05.06.1.09.15.04.07.09.14.14.21.03.04.06.09.09.13.05.08.1.16.16.24.02.04.05.07.07.11.06.09.12.17.18.26.02.03.04.06.06.09.07.1.14.19.21.29.02.02.03.04.05.06.08.1.15.21.23.31.01.01.02.03.03.04.08.11.17.22.26.33,0,0,.01.02.02.03.09.12.18.23.28.35,0,0,0,.01.01.02.1.12.19.24.29.36,0,0,0,0,0,.01.1.12.2.24.31.36,0,0,0,0,.01.01.1.12.21.24.31.36,0,0,.01.01.02.02.1.12.21.24.31.35.01.01.03.03.04.04.1.11.2.22.3.33.02.03.05.05.07.08.09.1.18.2.28.3.04.04.08.09.12.13.08.08.16.17.24.25.08.09.17.17.25.26.04.04.08.08.12.12.04.04.07.07.11.11.09.09.18.17.26.26.08.08.16.16.24.24.04.04.09.08.13.13.1.09.2.19.3.28.02.02.05.05.07.07.11.1.22.2.33.3.01.01.03.02.04.04.12.11.24.21.35.31,0,0,.01.01.02.02.12.11.24.21.36.32,0,0,0,0,.01,0,.12.1.25.21.37.31,0,0,0,0,0,0,.12.1.24.2.36.3,0,0,0,0,.01.01.12.09.23.19.35.28,0,0,.02.01.02.02.11.09.22.17.34.26.01.01.03.02.04.03.11.08.21.16.31.23.02.01.04.03.06.04.1.07.19.14.29.21.03.02.06.04.08.06.01,0,.02.02.03.02-.88-.27-1.77-.59-2.67-.96-.33-.13-.7.02-.84.35-.13.33.02.7.35.84,1.84.76,3.67,1.32,5.46,1.67l-4.19,1.75ZM37.61,30.15c1.12,1.95,1.01,2.74.87,2.87h0s-.02.01-.03.02c0,0,0,0,0,0,0,0-.01,0-.02.01,0,0,0,0,0,0,0,0-.01,0-.02,0,0,0,0,0,0,0,0,0-.02,0-.02,0,0,0,0,0,0,0-.31.09-1.18-.01-2.78-.94-.08-.04-.15-.09-.23-.13-.06-.04-.13-.08-.19-.12-.04-.03-.09-.05-.13-.08-.07-.05-.14-.09-.22-.14-.04-.02-.07-.05-.11-.07-.08-.05-.16-.11-.25-.16-.03-.02-.05-.04-.08-.06-.09-.06-.18-.13-.27-.19-.02-.01-.04-.03-.05-.04-.1-.07-.2-.14-.3-.22-.01,0-.02-.02-.03-.02-.11-.08-.22-.16-.33-.24,0,0,0,0,0,0-.7-.53-1.42-1.13-2.14-1.78,0,0-.01-.01-.02-.02-.11-.1-.23-.21-.34-.31-.02-.02-.04-.03-.05-.05-.1-.09-.2-.19-.31-.29-.04-.04-.07-.07-.11-.11-.08-.08-.17-.16-.25-.24-.08-.08-.16-.16-.24-.23-.04-.04-.08-.08-.12-.12s-.08-.08-.12-.13c-.08-.08-.16-.16-.23-.24-.08-.08-.16-.17-.24-.25-.04-.04-.07-.07-.11-.11-.1-.1-.19-.2-.29-.3-.02-.02-.03-.04-.05-.05-.1-.11-.21-.23-.31-.34,0,0-.01-.01-.02-.02-.65-.72-1.25-1.44-1.78-2.14,0,0,0,0,0,0-.08-.11-.16-.22-.24-.33,0-.01-.02-.02-.02-.03-.07-.1-.15-.2-.22-.3-.01-.02-.03-.04-.04-.06-.06-.09-.13-.18-.19-.27-.02-.03-.04-.05-.06-.08-.06-.08-.11-.16-.16-.24-.02-.04-.05-.07-.07-.11-.05-.07-.09-.14-.14-.22-.03-.04-.05-.09-.08-.13-.04-.06-.08-.13-.12-.19-.05-.08-.09-.15-.14-.23-.93-1.61-1.03-2.47-.94-2.78,0,0,0,0,0,0,0,0,0-.02,0-.03,0,0,0,0,0,0,0,0,0-.02,0-.02,0,0,0,0,0,0,0,0,0-.01.01-.02,0,0,0,0,0,0,0-.01.01-.02.02-.03.04-.04.15-.08.34-.08.41,0,1.2.19,2.53.96.74.43,1.54.97,2.36,1.6-.67.96-1.2,1.54-1.23,1.57-.24.26-.23.66.03.9.12.11.28.17.44.17.17,0,.34-.07.47-.2.04-.04.59-.64,1.29-1.63.81.67,1.62,1.42,2.43,2.23.76.76,1.46,1.53,2.11,2.29-.53.44-.83.75-.86.78-.25.25-.24.66.02.9.12.12.28.18.44.18s.33-.07.46-.19c.01-.01.28-.28.74-.67.68.87,1.26,1.72,1.72,2.51Z"></path>
    <path class="cls-1"
          d="M38.86,14.01c-.35-.05-.68.19-.73.53,0,.03-.59,3.54-4.15,7.11-.25.25-.25.66,0,.91.12.12.29.19.45.19s.33-.06.45-.19c3.88-3.88,4.49-7.66,4.51-7.82.05-.35-.19-.67-.54-.73Z"></path>
    <path class="cls-1"
          d="M29.01,9.2c0-.71-.28-1.38-.78-1.88-.5-.5-1.17-.78-1.88-.78s-1.38.28-1.88.78c-.5.5-.78,1.17-.78,1.88s.28,1.38.78,1.88c.5.5,1.17.78,1.88.78s1.38-.28,1.88-.78h0c.5-.5.78-1.17.78-1.88ZM27.32,10.17h0c-.26.26-.61.4-.98.4s-.72-.14-.98-.4-.4-.61-.4-.98c0-.37.14-.72.4-.98.26-.26.61-.4.98-.4s.72.14.98.4c.26.26.4.61.4.98s-.14.72-.4.98Z"></path>
    <path class="cls-1"
          d="M40.64,7.31c-1.04-1.04-2.72-1.04-3.76,0-.5.5-.78,1.17-.78,1.88s.28,1.38.78,1.88c.52.52,1.2.78,1.88.78s1.36-.26,1.88-.78c.5-.5.78-1.17.78-1.88s-.28-1.38-.78-1.88ZM39.74,10.17c-.54.54-1.41.54-1.95,0-.26-.26-.4-.61-.4-.98s.14-.72.4-.98c.27-.27.62-.4.98-.4s.71.13.98.4c.26.26.4.61.4.98,0,.37-.14.72-.4.98Z"></path>
    <path class="cls-1"
          d="M48.17,30.86c-1.04-1.04-2.72-1.04-3.76,0-1.04,1.04-1.04,2.72,0,3.76.52.52,1.2.78,1.88.78s1.36-.26,1.88-.78c1.04-1.04,1.04-2.72,0-3.76ZM47.26,33.71c-.54.54-1.41.54-1.95,0-.54-.54-.54-1.41,0-1.95.27-.27.62-.4.98-.4s.71.13.98.4c.54.54.54,1.41,0,1.95Z"></path>
    <path class="cls-1"
          d="M48.03,16.09c-.04-.35-.36-.6-.71-.56-.14.02-3.4.45-7.42,4.48-.25.25-.25.66,0,.91.12.12.29.19.45.19s.33-.06.45-.19c1.93-1.93,3.64-2.94,4.74-3.46,1.18-.55,1.92-.66,1.94-.66.35-.04.6-.36.56-.71Z"></path>
    <path class="cls-1"
          d="M49.4,7.61l-1.07-.48c-.3-.13-.54-.37-.68-.68l-.48-1.07c-.1-.23-.33-.38-.58-.38s-.48.15-.58.38l-.48,1.07c-.13.3-.37.54-.68.68l-1.07.48c-.23.1-.38.33-.38.58s.15.48.38.58l1.07.48c.3.13.54.37.68.68l.48,1.07c.1.23.33.38.58.38s.48-.15.58-.38l.48-1.07c.13-.3.37-.54.68-.68l1.07-.48c.23-.1.38-.33.38-.58,0-.25-.15-.48-.38-.58ZM46.59,9.2c-.24-.42-.59-.77-1.01-1.01.42-.24.77-.59,1.01-1.01.24.42.59.77,1.01,1.01-.42.24-.77.59-1.01,1.01Z"></path>
    <path class="cls-1"
          d="M20.89,16.3l-1.07-.48c-.3-.13-.54-.37-.68-.68l-.48-1.07c-.1-.23-.33-.38-.58-.38s-.48.15-.58.38l-.48,1.07c-.13.3-.37.54-.68.68l-1.07.48c-.23.1-.38.33-.38.58s.15.48.38.58l1.07.48c.3.13.54.37.68.68l.48,1.07c.1.23.33.38.58.38s.48-.15.58-.38l.48-1.07c.13-.3.37-.54.68-.68l1.07-.48c.23-.1.38-.33.38-.58s-.15-.48-.38-.58ZM18.08,17.9c-.24-.42-.59-.77-1.01-1.01.42-.24.77-.59,1.01-1.01.24.42.59.77,1.01,1.01-.42.24-.77.59-1.01,1.01Z"></path>
    <path class="cls-1"
          d="M38.81,39.86l-1.07-.48c-.3-.13-.54-.37-.68-.68l-.48-1.07c-.1-.23-.33-.38-.58-.38s-.48.15-.58.38l-.48,1.07c-.13.3-.37.54-.68.68l-1.07.48c-.23.1-.38.33-.38.58s.15.48.38.58l1.07.48c.3.13.54.37.68.68l.48,1.07c.1.23.33.38.58.38s.48-.15.58-.38l.48-1.07c.13-.3.37-.54.68-.68l1.07-.48c.23-.1.38-.33.38-.58,0-.25-.15-.48-.38-.58ZM36,41.45c-.24-.42-.59-.77-1.01-1.01.42-.24.77-.59,1.01-1.01.24.42.59.77,1.01,1.01-.42.24-.77.59-1.01,1.01Z"></path>
    <path class="cls-1"
          d="M52.29,21.34l-1.07-.48c-.3-.13-.54-.37-.68-.68l-.48-1.07c-.1-.23-.33-.38-.58-.38s-.48.15-.58.38l-.48,1.07c-.13.3-.37.54-.68.68l-1.07.48c-.23.1-.38.33-.38.58s.15.48.38.58l1.07.48c.3.13.54.37.68.68l.48,1.07c.1.23.33.38.58.38s.48-.15.58-.38l.48-1.07c.13-.3.37-.54.68-.68l1.07-.48c.23-.1.38-.33.38-.58,0-.25-.15-.48-.38-.58ZM49.48,22.94c-.24-.42-.59-.77-1.01-1.01.42-.24.77-.59,1.01-1.01.24.42.59.77,1.01,1.01-.42.24-.77.59-1.01,1.01Z"></path>
</svg>