<svg xmlns="http://www.w3.org/2000/svg" width="234.231" height="45.519" fill="white"
              viewBox="0 0 234.231 45.519">
              <g transform="translate(-7578.456 -4941.396)">
                <path
                  d="M1.363,1.637c0-.006,0-.012,0-.018A4.014,4.014,0,0,0,.782.126,9.5,9.5,0,0,0-2.669-3.232l-.023,0c.068.063.142.125.212.188C-1.119-1.685.571-.234,1.136,1.679a.117.117,0,0,0,.227-.042"
                  transform="translate(7589.728 4976.089)"></path>
                <path
                  d="M.223,1.833A80.705,80.705,0,0,1,19.964-2.3a50.63,50.63,0,0,1,6.029-.02,3.669,3.669,0,0,1,1.222.2.129.129,0,0,1-.008.105A15.565,15.565,0,0,1,23.382,2.7,13.125,13.125,0,0,1,19.86,3.838l-1.253.279,1.219.05c.466.02.913.029,1.339.029.154,0,.306,0,.453,0,2.245-.044,2.963-.443,5.122-2.849a15.222,15.222,0,0,0,2.647-4.3.458.458,0,0,0-.039-.432A.411.411,0,0,0,29-3.569a77.675,77.675,0,0,0-12.45.533A65.71,65.71,0,0,0-.023,1.619c-.728.375-.413.386.246.214"
                  transform="translate(7585.876 4958.892)"></path>
                <path
                  d="M.077.666C-.1.723-.2.882-.127,1.017c.137.237.589.044.914.026Q2.358.817,3.936.634L4.968.523C6.035.41,7.107.326,8.175.24a66.6,66.6,0,0,1,11.16-.09c.255,0,.911.035.875-.221-.23-.339-1.076-.472-1.543-.589A36.424,36.424,0,0,0,2.393-.028C1.616.173.839.4.077.666"
                  transform="translate(7580.942 4962.691)"></path>
                <path
                  d="M1.147.009C.411.1-.252.162-.978.275c-1.94.235-1.522.937.155,1H-.7A3.91,3.91,0,0,0,1.553.518c.191-.143.4-.322.3-.435s-.42-.114-.707-.074"
                  transform="translate(7613.342 4962.459)"></path>
                <path
                  d="M3.619.472c.7-.2,1.4-.39,2.111-.56C6.35-.244,6.959-.43,7.335-.037a6.541,6.541,0,0,1,.777,1.2c.273.422.637.945,1.189.984C8.839,1.349,8.355.567,7.879-.216c-.194-.383-.419-.7-.85-.716a23.367,23.367,0,0,0-3.537.646q-1.921.4-3.8.957A15.223,15.223,0,0,0-7.043,4.418l-.1.107a.4.4,0,0,0,.35.191A31.057,31.057,0,0,1-1.78,2.143,39.436,39.436,0,0,1,3.619.472"
                  transform="translate(7599.072 4952.406)"></path>
                <path
                  d="M1.205.845c.179.262.3.607.467.874C2.888,3.084,6.4,1.165,7.739.532c1.171-.6,2.686-1.409,3.8-2.115a.049.049,0,0,0,.02-.054.051.051,0,0,0-.072-.026C9.573-1.057,7.45-.123,5.606.544a7.251,7.251,0,0,1-3.143.681c-.03-.006-.032-.017-.057-.017s-.017-.015-.038-.015a.1.1,0,0,0-.039-.039L2.192.9A5.055,5.055,0,0,0-2.327-1.624a.049.049,0,0,0-.018.095A5.659,5.659,0,0,1,1.205.845"
                  transform="translate(7592.577 4966.037)"></path>
                <path
                  d="M4.127.5C-.606,2.305-5.753,7.869-7.2,12.724A20.337,20.337,0,0,0-3.958,31.338c-.015-.02.111.212.6-.066.2-.113.419-.252.628-.343,1.273-.569,2.611-.952,3.876-1.532.056-.026.253-.121.3-.139a.375.375,0,0,1,.4.1,1.368,1.368,0,0,0,1.039.735A1.141,1.141,0,0,0,4.073,29.2l.06-.244a7.231,7.231,0,0,0-1.4-6.55c-.032-.05-.11,0-.083.05a8.414,8.414,0,0,1,.9,3.534,8.846,8.846,0,0,1-.321,2.724c-.036.092-.062.33-.134.384-.271.185-.39-.246-.571-.39a1.265,1.265,0,0,0-1.377-.294c-.969.511-2.975,1.638-4.262,2.347a.449.449,0,0,1-.574-.122A19.224,19.224,0,0,1-7.506,18.8C-7.381,9.419.691.628,10.031-.251A19.412,19.412,0,1,1,4.6,37.054c.362-.161.717-.331,1.061-.518l.325-.175a1.66,1.66,0,0,0,.881-1.924c-.054-.166-.145-.381-.218-.566l.628-.359a30.046,30.046,0,0,0,6.083-4.334,20.584,20.584,0,0,1,2.883-3.124,14.8,14.8,0,0,1,1.924-1.415c.256-.158.511-.318.755-.494a12.667,12.667,0,0,0,2.427-2.052,5.582,5.582,0,0,0-1.737,1.255,7.181,7.181,0,0,1-1.246.713,13.246,13.246,0,0,0-2.5,1.5A16.719,16.719,0,0,0,13.7,27.51a11.756,11.756,0,0,1-2.043,2.034,61.769,61.769,0,0,1-5.49,3.522c-1.46.856,1.058,1.98-.771,3.141-.5.316-1.264.71-1.232,1.308a16.508,16.508,0,0,0,5.417,1.473c.649.075,1.3.118,1.957.13a20.151,20.151,0,0,0,20.3-17.89C33.37,6.644,19.153-5.247,4.127.5"
                  transform="translate(7586.604 4942.375)"></path>
                <path
                  d="M4.206.012C-1.041.39-8.418,7.516-8.3,13.926a4.065,4.065,0,0,0,5.342,4.089C2.659,16.6,8.515,9.733,8.685,4.043l-.008-.217A3.809,3.809,0,0,0,4.206.012M-6.262,14.67C-6.678,11.5-1.786,5.688,2.261,3.935c1.436-.654,3.784-1.309,4.325.592l.032.163C7.772,8.193-4.287,21.054-6.262,14.67"
                  transform="translate(7711.223 4954.475)"></path>
                <path d="M0,9H23.165V4.257H5.431V-2.322H22.267V-6.795H5.431v-6.219H23.165v-4.764H0Z"
                  transform="translate(7757.666 4964.649)"></path>
                <path
                  d="M8.606,2.327a10.206,10.206,0,0,0-2.587-3.7A11.73,11.73,0,0,0,1.863-3.756,17.342,17.342,0,0,0-3.747-4.6a17.361,17.361,0,0,0-5.613.839,11.736,11.736,0,0,0-4.155,2.382,10.206,10.206,0,0,0-2.587,3.7,12.471,12.471,0,0,0-.89,4.8v15.4h5.431V17.686c.447-.711,5.309-7.954,15.627-5.664V22.529H9.5V7.126a12.471,12.471,0,0,0-.89-4.8m-20.167,9.312V7.776a9.71,9.71,0,0,1,.5-3.23A6.2,6.2,0,0,1-9.582,2.156,6.381,6.381,0,0,1-7.132.673a10.4,10.4,0,0,1,3.385-.5,10.382,10.382,0,0,1,3.393.5A6.389,6.389,0,0,1,2.086,2.156,6.2,6.2,0,0,1,3.569,4.546a9.693,9.693,0,0,1,.5,3.206,18.434,18.434,0,0,0-15.625,3.887"
                  transform="translate(7803.189 4951.125)"></path>
                <path
                  d="M22.055,4.133A8.774,8.774,0,0,0,19,2.616a15.031,15.031,0,0,0-4.19-.53q-1.252,0-2.579.128t-2.6.283q-1.277.154-2.433.282a18.766,18.766,0,0,1-2.047.13,5.742,5.742,0,0,1-3.29-.762A2.315,2.315,0,0,1,.774.183a2.61,2.61,0,0,1,.334-1.241A3.052,3.052,0,0,1,2.3-2.189a8.1,8.1,0,0,1,2.3-.832A17.3,17.3,0,0,1,8.3-3.346a26.118,26.118,0,0,1,3.093.181q1.516.179,2.938.488t2.725.728a25.516,25.516,0,0,1,2.433.917l2.382-4.387A27.618,27.618,0,0,0,18.9-6.542a33.949,33.949,0,0,0-3.316-.865q-1.722-.359-3.537-.557a33.588,33.588,0,0,0-3.616-.2A25.143,25.143,0,0,0,4-7.81a16.673,16.673,0,0,0-3.427.969A10.2,10.2,0,0,0-1.951-5.375,8.777,8.777,0,0,0-3.179-4.143l-.021,0A96.63,96.63,0,0,0-38.57-2.462c-1.52.393-3.04.844-4.53,1.357-.35.113-.539.422-.4.684.267.462,1.149.086,1.785.053q3.071-.443,6.157-.8,1.008-.113,2.017-.218c2.087-.22,4.181-.387,6.27-.553.832-.066,1.323-.086,2.156-.143A127.073,127.073,0,0,0-37.922,20.045c-.6,1.579,1.148.5,1.458-.4A139.554,139.554,0,0,1-22.593-1.118a3.356,3.356,0,0,1,2.477-1.258,113.1,113.1,0,0,1,14.664.259,8.429,8.429,0,0,0,1.085-.03,6.864,6.864,0,0,0-.247.669A8.08,8.08,0,0,0-4.915.7a6.691,6.691,0,0,0,.753,3.237A6.892,6.892,0,0,0-2.131,6.25,9.158,9.158,0,0,0,.8,7.638,12.744,12.744,0,0,0,4.252,8.1a19.4,19.4,0,0,0,2.3-.146q1.227-.145,2.486-.316t2.493-.316a19.854,19.854,0,0,1,2.347-.146,6.624,6.624,0,0,1,3.753.848,2.667,2.667,0,0,1,1.216,2.3,3.075,3.075,0,0,1-.488,1.678A3.934,3.934,0,0,1,16.8,13.335a10.072,10.072,0,0,1-2.767.874,22.821,22.821,0,0,1-4.113.316,28.225,28.225,0,0,1-3.777-.24,24.6,24.6,0,0,1-3.385-.694A23.568,23.568,0,0,1-.348,12.478,33.014,33.014,0,0,1-3.3,11l-.017.024a19.987,19.987,0,0,1-2.87,4.319c.773.4,2.441,1.311,3.307,1.663a30.954,30.954,0,0,0,3.769,1.25,33.2,33.2,0,0,0,4.138.806,34.028,34.028,0,0,0,4.42.282,27.832,27.832,0,0,0,6.22-.642,15.477,15.477,0,0,0,4.771-1.885,9.056,9.056,0,0,0,3.051-3.051,7.929,7.929,0,0,0,1.071-4.12,7.5,7.5,0,0,0-.634-3.127,6.409,6.409,0,0,0-1.868-2.382"
                  transform="translate(7728.558 4954.313)"></path>
                <path
                  d="M7.089,4.967a9.738,9.738,0,0,1-.5,3.234,6.231,6.231,0,0,1-1.484,2.394,6.4,6.4,0,0,1-2.454,1.484,10.376,10.376,0,0,1-3.388.506,10.356,10.356,0,0,1-3.4-.506,6.411,6.411,0,0,1-2.445-1.484A6.213,6.213,0,0,1-8.06,8.2a9.738,9.738,0,0,1-.5-3.234V-9.806H-14V5.619a12.479,12.479,0,0,0,.893,4.8,10.212,10.212,0,0,0,2.59,3.706,11.744,11.744,0,0,0,4.161,2.383,17.315,17.315,0,0,0,5.619.842,17.315,17.315,0,0,0,5.619-.842,11.724,11.724,0,0,0,4.159-2.383,10.216,10.216,0,0,0,2.591-3.706,12.479,12.479,0,0,0,.892-4.8V-9.806H7.089Z"
                  transform="translate(7640.022 4956.299)"></path>
                <path
                  d="M7.816.874a10.238,10.238,0,0,0-3.757-1.93,19.009,19.009,0,0,0-5.353-.669H-15.432V25.091h5.44v-7.12l8.732.017a17.181,17.181,0,0,0,5.354-.746,10.451,10.451,0,0,0,3.748-2.076,8.252,8.252,0,0,0,2.2-3.149,10.664,10.664,0,0,0,.722-3.964,10.959,10.959,0,0,0-.729-4.1A7.74,7.74,0,0,0,7.816.874M4.651,10.206a4.214,4.214,0,0,1-1.168,1.648A5.412,5.412,0,0,1,1.546,12.9a8.9,8.9,0,0,1-2.7.369H-9.992V3.01h8.836a6.98,6.98,0,0,1,4.64,1.329A4.626,4.626,0,0,1,5.037,8.054a5.765,5.765,0,0,1-.386,2.153"
                  transform="translate(7673.031 4948.22)"></path>
                <path
                  d="M.567.315A1.724,1.724,0,0,1,1.451.089,2.558,2.558,0,0,1,1.92.135a2.939,2.939,0,0,1,.5.149,3.444,3.444,0,0,1,.524.267L3.01-.225a2.1,2.1,0,0,0-.318-.146C2.57-.416,2.441-.458,2.3-.5a3.592,3.592,0,0,0-.446-.089,3.352,3.352,0,0,0-.479-.035A2.535,2.535,0,0,0,.056-.288,2.256,2.256,0,0,0-.81.628a2.8,2.8,0,0,0-.309,1.336A2.936,2.936,0,0,0-.941,3a2.346,2.346,0,0,0,.515.818,2.269,2.269,0,0,0,.814.536,2.876,2.876,0,0,0,1.077.191,3.787,3.787,0,0,0,.413-.021,3.445,3.445,0,0,0,.4-.063,2.566,2.566,0,0,0,.374-.11,2.135,2.135,0,0,0,.328-.155l-.056-.768a2.624,2.624,0,0,1-.333.2,2.042,2.042,0,0,1-.343.133,2.812,2.812,0,0,1-.345.072,2.7,2.7,0,0,1-.35.021A1.967,1.967,0,0,1,.763,3.7a1.573,1.573,0,0,1-.571-.41,1.766,1.766,0,0,1-.34-.6,2.3,2.3,0,0,1-.113-.728,2.128,2.128,0,0,1,.22-1A1.573,1.573,0,0,1,.567.315"
                  transform="translate(7628.496 4982.372)"></path>
                <path
                  d="M1.488.253A2.2,2.2,0,0,0,.694-.3,2.808,2.808,0,0,0-.4-.5a2.615,2.615,0,0,0-1.387.345,2.242,2.242,0,0,0-.856.93,2.9,2.9,0,0,0-.292,1.309,3.046,3.046,0,0,0,.158.984,2.388,2.388,0,0,0,.473.824,2.186,2.186,0,0,0,.8.566,2.862,2.862,0,0,0,1.131.206A2.6,2.6,0,0,0,.981,4.327a2.217,2.217,0,0,0,.854-.92,2.9,2.9,0,0,0,.294-1.323,3.084,3.084,0,0,0-.161-1.006A2.338,2.338,0,0,0,1.488.253m-.31,2.54A1.808,1.808,0,0,1,.871,3.4a1.482,1.482,0,0,1-.521.419,1.678,1.678,0,0,1-.744.154,1.725,1.725,0,0,1-.749-.151A1.473,1.473,0,0,1-1.67,3.4a1.813,1.813,0,0,1-.309-.6,2.485,2.485,0,0,1-.1-.717,2.392,2.392,0,0,1,.105-.72A1.817,1.817,0,0,1-1.658.758,1.466,1.466,0,0,1-1.132.344,1.682,1.682,0,0,1-.394.193,1.686,1.686,0,0,1,.325.338a1.441,1.441,0,0,1,.523.4,1.8,1.8,0,0,1,.321.6,2.449,2.449,0,0,1,.108.741,2.5,2.5,0,0,1-.1.71"
                  transform="translate(7636.499 4982.251)"></path>
                <path
                  d="M1.112.27V3.045H1.046L.062,1.65Q-.3,1.124-.679.588L-1.468-.534H-2.2V4.452h.773V.855h.063l.99,1.409L.452,3.433c.252.356.49.694.716,1.02h.717V-.534H1.112Z"
                  transform="translate(7643.134 4982.379)"></path>
                <path
                  d="M.567.315A1.724,1.724,0,0,1,1.451.089,2.558,2.558,0,0,1,1.92.135a2.939,2.939,0,0,1,.5.149,3.444,3.444,0,0,1,.524.267L3.01-.225a2.1,2.1,0,0,0-.318-.146Q2.509-.439,2.3-.5a3.592,3.592,0,0,0-.446-.089,3.352,3.352,0,0,0-.479-.035A2.535,2.535,0,0,0,.056-.288,2.279,2.279,0,0,0-.812.628a2.82,2.82,0,0,0-.307,1.336A2.936,2.936,0,0,0-.941,3a2.346,2.346,0,0,0,.515.818,2.269,2.269,0,0,0,.814.536,2.876,2.876,0,0,0,1.077.191,3.787,3.787,0,0,0,.413-.021,3.5,3.5,0,0,0,.4-.063,2.623,2.623,0,0,0,.374-.11,2.135,2.135,0,0,0,.328-.155l-.056-.768a2.733,2.733,0,0,1-.333.2,2.042,2.042,0,0,1-.343.133,2.812,2.812,0,0,1-.345.072,2.7,2.7,0,0,1-.35.021A1.967,1.967,0,0,1,.763,3.7a1.573,1.573,0,0,1-.571-.41,1.766,1.766,0,0,1-.34-.6,2.3,2.3,0,0,1-.113-.728,2.128,2.128,0,0,1,.22-1A1.573,1.573,0,0,1,.567.315"
                  transform="translate(7648.445 4982.372)"></path>
                <path d="M0,0V4.985H.835V0Z" transform="translate(7653.798 4981.846)"></path>
                <path d="M0,0V4.985H3.192V4.294H.8V2.8h2.24V2.129H.8V.693h2.37V0Z"
                  transform="translate(7657.224 4981.846)"></path>
                <path
                  d="M1.1,1.357C.964,1.186.842,1.023.725.868L.2.175A1.591,1.591,0,0,0,.683.014a1.237,1.237,0,0,0,.533-.551A1.74,1.74,0,0,0,1.379-1.3a1.455,1.455,0,0,0-.2-.812,1.108,1.108,0,0,0-.6-.438A3.092,3.092,0,0,0-.394-2.68H-2.163V2.3h.8V.386h.82l.562.768.407.559L.862,2.3H1.81c-.1-.128-.206-.276-.331-.44L1.1,1.357M-1.359-.89V-2.013h.937a2.05,2.05,0,0,1,.328.026.861.861,0,0,1,.309.1.6.6,0,0,1,.23.241.934.934,0,0,1,.086.437,1.033,1.033,0,0,1-.124.542.69.69,0,0,1-.374.291A1.848,1.848,0,0,1-.6-.282h-.762Z"
                  transform="translate(7664.942 4984.526)"></path>
                <path
                  d="M1.2,1.033V2.345c-.017,0-.033.012-.051.017a3.119,3.119,0,0,1-.383.065,3.84,3.84,0,0,1-.4.021A2.236,2.236,0,0,1-.476,2.3a1.539,1.539,0,0,1-.586-.41,1.691,1.691,0,0,1-.343-.607A2.4,2.4,0,0,1-1.517.546a2.271,2.271,0,0,1,.128-.792,1.671,1.671,0,0,1,.368-.591A1.587,1.587,0,0,1-.463-1.2a1.892,1.892,0,0,1,.7-.127,2.813,2.813,0,0,1,.49.047,3.585,3.585,0,0,1,.53.149,3.855,3.855,0,0,1,.563.267l.066-.776a3.107,3.107,0,0,0-.322-.14,3.964,3.964,0,0,0-.408-.128A4.1,4.1,0,0,0,.691-2a3.523,3.523,0,0,0-.509-.036,2.652,2.652,0,0,0-1.356.331A2.274,2.274,0,0,0-2.057-.8,2.792,2.792,0,0,0-2.367.542a2.9,2.9,0,0,0,.175,1.026,2.293,2.293,0,0,0,.514.818,2.335,2.335,0,0,0,.836.542A3.114,3.114,0,0,0,.3,3.122,5.015,5.015,0,0,0,.8,3.1c.164-.015.319-.038.469-.065s.282-.06.4-.093a2.433,2.433,0,0,0,.3-.1V.51H1.2Z"
                  transform="translate(7670.891 4983.79)"></path>
                <path d="M0,0V4.985H3.192V4.294H.8V2.8H3.046V2.129H.8V.693H3.176V0Z"
                  transform="translate(7675.306 4981.846)"></path>
                <path
                  d="M1.1,1.357C.964,1.186.842,1.023.725.868L.2.175A1.591,1.591,0,0,0,.683.014a1.229,1.229,0,0,0,.533-.551A1.74,1.74,0,0,0,1.379-1.3a1.455,1.455,0,0,0-.2-.812,1.1,1.1,0,0,0-.6-.438A3.088,3.088,0,0,0-.393-2.68h-1.77V2.3h.8V.386h.821l.56.768.407.559L.862,2.3H1.81c-.1-.128-.206-.276-.331-.44L1.1,1.357M-1.359-.89V-2.013h.937a2.05,2.05,0,0,1,.328.026.861.861,0,0,1,.309.1.6.6,0,0,1,.23.241.934.934,0,0,1,.086.437,1.033,1.033,0,0,1-.124.542.69.69,0,0,1-.374.291A1.848,1.848,0,0,1-.6-.282h-.762Z"
                  transform="translate(7683.024 4984.526)"></path>
                <path d="M0,0V4.985H.836V0Z" transform="translate(7687.018 4981.846)"></path>
                <path d="M0,0V4.985H3.192V4.294H.8V2.8h2.24V2.129H.8V.693h2.37V0Z"
                  transform="translate(7690.445 4981.846)"></path>
                <path
                  d="M1.219,1.3,1.686.679c.161-.209.321-.42.482-.634l-.627-.4q-.2.307-.392.612C1.03.442.905.64.777.839L-.16-.133c.1-.044.2-.086.3-.142A2.044,2.044,0,0,0,.526-.543,1.194,1.194,0,0,0,.813-.918a1.127,1.127,0,0,0,.11-.512,1.042,1.042,0,0,0-.178-.61,1.1,1.1,0,0,0-.479-.386A1.677,1.677,0,0,0-.41-2.557a1.523,1.523,0,0,0-.66.14,1.135,1.135,0,0,0-.475.407,1.131,1.131,0,0,0-.176.642,1.308,1.308,0,0,0,.182.682,3.314,3.314,0,0,0,.28.356,3.148,3.148,0,0,0-.5.292,1.719,1.719,0,0,0-.469.526,1.426,1.426,0,0,0-.181.735,1.425,1.425,0,0,0,.172.694,1.232,1.232,0,0,0,.515.5A1.817,1.817,0,0,0-.853,2.6,1.923,1.923,0,0,0-.234,2.5a1.7,1.7,0,0,0,.5-.268,2.856,2.856,0,0,0,.435-.422H.777L1,2.047c.155.158.309.318.462.476H2.4c-.214-.224-.429-.447-.648-.672C1.577,1.664,1.4,1.48,1.219,1.3M-.8-1.82a.565.565,0,0,1,.431-.173.593.593,0,0,1,.429.166.554.554,0,0,1,.172.414.7.7,0,0,1-.1.381.926.926,0,0,1-.286.28,2.364,2.364,0,0,1-.4.2A2.374,2.374,0,0,1-.839-.918a.894.894,0,0,1-.127-.453A.622.622,0,0,1-.8-1.82M0,1.652a1.365,1.365,0,0,1-.371.238.965.965,0,0,1-.387.081,1.1,1.1,0,0,1-.5-.107.755.755,0,0,1-.312-.294.839.839,0,0,1-.107-.428A.911.911,0,0,1-1.57.7a1.184,1.184,0,0,1,.3-.354A2.149,2.149,0,0,1-.881.108L.3,1.322a2.3,2.3,0,0,1-.3.33"
                  transform="translate(7700.863 4984.308)"></path>
                <path d="M0,0V4.985H3.206V4.262H.821V0Z" transform="translate(7708.08 4981.846)"></path>
                <path
                  d="M1.488.253A2.2,2.2,0,0,0,.694-.3,2.808,2.808,0,0,0-.4-.5a2.615,2.615,0,0,0-1.387.345,2.242,2.242,0,0,0-.856.93,2.9,2.9,0,0,0-.292,1.309,3.046,3.046,0,0,0,.158.984,2.388,2.388,0,0,0,.473.824,2.186,2.186,0,0,0,.8.566,2.862,2.862,0,0,0,1.131.206A2.588,2.588,0,0,0,.98,4.327a2.211,2.211,0,0,0,.856-.92,2.9,2.9,0,0,0,.294-1.323,3.084,3.084,0,0,0-.161-1.006A2.338,2.338,0,0,0,1.488.253m-.31,2.54A1.808,1.808,0,0,1,.871,3.4a1.482,1.482,0,0,1-.521.419A1.685,1.685,0,0,1-.4,3.971a1.723,1.723,0,0,1-.747-.151A1.486,1.486,0,0,1-1.67,3.4a1.813,1.813,0,0,1-.309-.6,2.485,2.485,0,0,1-.1-.717,2.392,2.392,0,0,1,.105-.72A1.817,1.817,0,0,1-1.658.758,1.466,1.466,0,0,1-1.132.344,1.679,1.679,0,0,1-.4.193a1.688,1.688,0,0,1,.72.145,1.441,1.441,0,0,1,.523.4,1.8,1.8,0,0,1,.321.6,2.449,2.449,0,0,1,.108.741,2.5,2.5,0,0,1-.1.71"
                  transform="translate(7716.038 4982.251)"></path>
                <path
                  d="M.567.315A1.724,1.724,0,0,1,1.451.089,2.558,2.558,0,0,1,1.92.135a2.939,2.939,0,0,1,.5.149,3.364,3.364,0,0,1,.523.267L3.01-.225a2.1,2.1,0,0,0-.318-.146Q2.509-.439,2.3-.5a3.592,3.592,0,0,0-.446-.089,3.352,3.352,0,0,0-.479-.035A2.535,2.535,0,0,0,.056-.288,2.269,2.269,0,0,0-.812.628a2.82,2.82,0,0,0-.307,1.336A2.936,2.936,0,0,0-.941,3a2.346,2.346,0,0,0,.515.818,2.269,2.269,0,0,0,.814.536,2.876,2.876,0,0,0,1.077.191,3.787,3.787,0,0,0,.413-.021,3.5,3.5,0,0,0,.4-.063,2.623,2.623,0,0,0,.374-.11,2.135,2.135,0,0,0,.328-.155l-.056-.768a2.624,2.624,0,0,1-.333.2,2.042,2.042,0,0,1-.343.133,2.812,2.812,0,0,1-.345.072,2.7,2.7,0,0,1-.35.021A1.967,1.967,0,0,1,.763,3.7a1.573,1.573,0,0,1-.571-.41,1.741,1.741,0,0,1-.34-.6,2.3,2.3,0,0,1-.113-.728,2.128,2.128,0,0,1,.22-1A1.573,1.573,0,0,1,.567.315"
                  transform="translate(7721.323 4982.372)"></path>
                <path
                  d="M1.328,1.111.737-.605q-.16-.459-.289-.829T.185-2.193H-.882c-.087.253-.175.5-.261.75s-.185.527-.3.833L-2.031,1.1c-.1.267-.194.548-.3.844s-.2.578-.294.847h.829c.093-.283.188-.574.286-.875.035-.1.065-.2.1-.3H.68c.035.1.065.2.1.306q.142.445.279.869h.854c-.09-.265-.187-.545-.289-.835s-.2-.572-.3-.848M-.388-1.473h.069L.477.989H-1.2Z"
                  transform="translate(7728.879 4984.038)"></path>
                <path d="M0,0V.723H1.636V4.985h.818V.723H4.087V0Z" transform="translate(7731.969 4981.846)"></path>
                <path d="M0,0V4.985H.836V0Z" transform="translate(7738.262 4981.846)"></path>
                <path
                  d="M1.488.253A2.2,2.2,0,0,0,.694-.3,2.808,2.808,0,0,0-.4-.5a2.611,2.611,0,0,0-1.387.345,2.242,2.242,0,0,0-.856.93,2.9,2.9,0,0,0-.292,1.309,3.046,3.046,0,0,0,.158.984,2.388,2.388,0,0,0,.473.824,2.186,2.186,0,0,0,.8.566,2.862,2.862,0,0,0,1.131.206A2.588,2.588,0,0,0,.98,4.327a2.211,2.211,0,0,0,.856-.92,2.9,2.9,0,0,0,.294-1.323,3.084,3.084,0,0,0-.161-1.006A2.338,2.338,0,0,0,1.488.253m-.31,2.54A1.808,1.808,0,0,1,.871,3.4a1.482,1.482,0,0,1-.521.419,1.678,1.678,0,0,1-.744.154,1.725,1.725,0,0,1-.749-.151A1.486,1.486,0,0,1-1.67,3.4a1.813,1.813,0,0,1-.309-.6,2.485,2.485,0,0,1-.1-.717,2.392,2.392,0,0,1,.105-.72A1.841,1.841,0,0,1-1.659.758,1.484,1.484,0,0,1-1.132.344,1.682,1.682,0,0,1-.394.193,1.686,1.686,0,0,1,.325.338a1.441,1.441,0,0,1,.523.4,1.8,1.8,0,0,1,.321.6,2.449,2.449,0,0,1,.108.741,2.5,2.5,0,0,1-.1.71"
                  transform="translate(7744.356 4982.251)"></path>
                <path
                  d="M1.112.27V3.045H1.046L.062,1.65Q-.3,1.124-.679.588L-1.468-.534H-2.2V4.452h.773V.855h.063l.99,1.409L.452,3.433c.252.356.49.694.716,1.02h.717V-.534H1.112Z"
                  transform="translate(7750.992 4982.379)"></path>
                <path
                  d="M1.213.219A2.015,2.015,0,0,0,.46-.267,2.926,2.926,0,0,0-.56-.433H-2.4V4.553H-.773A3.4,3.4,0,0,0,.443,4.361a2.018,2.018,0,0,0,.806-.535,2.119,2.119,0,0,0,.447-.8,3.293,3.293,0,0,0,.143-.985A3.18,3.18,0,0,0,1.68,1,2.1,2.1,0,0,0,1.213.219m-.4,2.761a1.369,1.369,0,0,1-.553.66,1.927,1.927,0,0,1-1.032.241h-.8V.239H-.7A2.054,2.054,0,0,1,.056.365,1.309,1.309,0,0,1,.58.727a1.493,1.493,0,0,1,.3.565,2.61,2.61,0,0,1,.1.737,2.56,2.56,0,0,1-.167.952"
                  transform="translate(7760.586 4982.278)"></path>
                <path d="M0,0V4.985H3.192V4.294H.8V2.8h2.24V2.129H.8V.693h2.37V0Z"
                  transform="translate(7764.729 4981.846)"></path>
                <path
                  d="M1.073.875a1.687,1.687,0,0,0-.5-.19V.612A1.381,1.381,0,0,0,1.027.384a1.112,1.112,0,0,0,.318-.392,1.238,1.238,0,0,0,.118-.556,1.231,1.231,0,0,0-.092-.481.913.913,0,0,0-.286-.368,1.426,1.426,0,0,0-.518-.234,3.148,3.148,0,0,0-.782-.083h-1.9V3.258H-.493a4.28,4.28,0,0,0,1.008-.1A1.661,1.661,0,0,0,1.15,2.87a1.039,1.039,0,0,0,.334-.438,1.5,1.5,0,0,0,.1-.553,1.241,1.241,0,0,0-.14-.624,1.019,1.019,0,0,0-.371-.38M-1.315-.5v-.559H-.28a1.077,1.077,0,0,1,.667.172.619.619,0,0,1,.224.526A.772.772,0,0,1,.51.03.731.731,0,0,1,.193.313,1.246,1.246,0,0,1-.359.42h-.955V-.5ZM.617,2.231A.731.731,0,0,1,.245,2.5a2,2,0,0,1-.667.092h-.892V1.064H-.34a1.5,1.5,0,0,1,.792.176.619.619,0,0,1,.282.571.737.737,0,0,1-.118.42"
                  transform="translate(7775.137 4983.573)"></path>
                <path
                  d="M1.328,1.111.737-.605Q.577-1.064.45-1.434c-.086-.247-.173-.5-.265-.759H-.882c-.087.253-.175.5-.261.75s-.185.527-.3.833L-2.031,1.1c-.1.267-.194.548-.3.844s-.2.578-.294.847h.829c.093-.283.188-.574.286-.875.035-.1.066-.2.1-.3H.68c.035.1.065.2.1.306q.142.445.279.869h.854c-.09-.265-.187-.545-.288-.835s-.2-.572-.3-.848M-.388-1.473h.069L.478.989H-1.2Z"
                  transform="translate(7781.165 4984.038)"></path>
                <path d="M0,0V.723H1.636V4.985h.818V.723H4.087V0Z" transform="translate(7784.255 4981.846)"></path>
                <path d="M0,0V4.985H3.192V4.294H.8V2.8h2.24V2.129H.8V.693h2.37V0Z"
                  transform="translate(7790.531 4981.846)"></path>
                <path
                  d="M1.328,1.111.737-.605q-.16-.459-.289-.829T.185-2.193H-.882c-.087.253-.175.5-.261.75s-.185.527-.3.833L-2.031,1.1c-.1.267-.194.548-.3.844s-.2.578-.294.847h.829c.093-.283.188-.574.286-.875.035-.1.066-.2.1-.3H.68c.033.1.065.2.1.306q.142.445.279.869h.854c-.092-.265-.187-.545-.288-.835s-.2-.572-.3-.848M-.388-1.473h.069L.477.989H-1.2Z"
                  transform="translate(7798.307 4984.038)"></path>
                <path
                  d="M1.081.27V2.508a1.989,1.989,0,0,1-.114.72.9.9,0,0,1-.378.456,1.341,1.341,0,0,1-.7.158,1.333,1.333,0,0,1-.7-.158A.918.918,0,0,1-1.2,3.228a1.911,1.911,0,0,1-.121-.716V-.534h-.818V2.574a2.416,2.416,0,0,0,.206,1.035,1.477,1.477,0,0,0,.652.684A2.42,2.42,0,0,0-.11,4.535a2.355,2.355,0,0,0,1.142-.243,1.513,1.513,0,0,0,.657-.682A2.365,2.365,0,0,0,1.9,2.577V-.534H1.081Z"
                  transform="translate(7804.252 4982.379)"></path>
                <path
                  d="M1.3,1.42.8.648.164-.325.781-1.358c.121-.208.255-.432.4-.676L1.642-2.8H.726c-.119.209-.24.414-.359.619L.022-1.6-.4-.873H-.467L-.9-1.589c-.111-.187-.23-.383-.353-.586S-1.5-2.588-1.63-2.8h-.945c.176.285.342.548.494.789s.3.481.446.717l.575.92L-1.722.749q-.226.386-.437.738c-.139.237-.276.467-.408.7h.919c.121-.208.235-.4.34-.585s.214-.363.321-.545L-.489.2h.071l.535.853c.11.172.223.353.34.539s.243.384.372.594H1.8q-.26-.4-.5-.764"
                  transform="translate(7810.884 4984.648)"></path>
              </g>
            </svg>