<?xml version="1.0" encoding="UTF-8"?>
<svg xmlns="http://www.w3.org/2000/svg" version="1.1" xmlns:xlink="http://www.w3.org/1999/xlink" width="38px" height="29px"
    x="0" y="0" viewBox="0 0 511 511.785" style="enable-background:new 0 0 512 512" xml:space="preserve"
     class=""><g><path d="M417.176 409.395c-61.563 18.765-128.367 7.445-180.305-30.56a204.394 204.394 0 0 1-83.691-162.6c-.192-77.114 42.328-147.989 110.449-184.126a16.733 16.733 0 0 0 8.43-19.148A16.765 16.765 0 0 0 255.625 0h-.055A254.292 254.292 0 0 0 70.016 79.46 254.29 254.29 0 0 0 .824 269.087a251.885 251.885 0 0 0 84.473 177.93 260.23 260.23 0 0 0 171.316 64.77c5.067 0 10.153-.153 15.215-.458a256.783 256.783 0 0 0 105.492-30.125 246.278 246.278 0 0 0 56.707-43.355 17.059 17.059 0 0 0-16.851-28.453zm-47.946 56.773a239.518 239.518 0 0 1-98.43 28.125 242.961 242.961 0 0 1-174.202-60.059 234.971 234.971 0 0 1-78.727-166 237.292 237.292 0 0 1 64.54-177.043 237.28 237.28 0 0 1 173.23-74.164C181.887 56.18 135.875 132.95 136.109 216.45c.813 69.688 34.38 134.93 90.61 176.102 56.226 41.176 128.558 53.484 195.238 33.222a229.115 229.115 0 0 1-52.727 40.395zm0 0" fill="#3d5da8" opacity="1" data-original="#000000" class=""></path><path
        d="M285.488 144.852c23.524 0 42.664 22.964 42.664 51.199a8.534 8.534 0 1 0 17.067 0c0-28.235 19.144-51.2 42.668-51.2a8.534 8.534 0 1 0 0-17.066c-23.524 0-42.668-22.969-42.668-51.2a8.533 8.533 0 1 0-17.067 0c0 28.231-19.14 51.2-42.664 51.2a8.533 8.533 0 1 0 0 17.067zm51.2-33.133a64.699 64.699 0 0 0 22.304 24.597 64.738 64.738 0 0 0-22.305 24.602 64.801 64.801 0 0 0-22.304-24.602 64.762 64.762 0 0 0 22.305-24.597zM451.277 225.918c-17.476 0-31.695-17.227-31.695-38.398a8.533 8.533 0 1 0-17.066 0c0 21.171-14.215 38.398-31.696 38.398a8.536 8.536 0 0 0-8.535 8.535c0 4.711 3.824 8.531 8.535 8.531 17.48 0 31.696 17.227 31.696 38.403 0 4.71 3.82 8.531 8.535 8.531 4.71 0 8.531-3.82 8.531-8.531 0-21.176 14.219-38.403 31.695-38.403a8.533 8.533 0 1 0 0-17.066zm-40.226 24.148a52.696 52.696 0 0 0-14.27-15.613 52.663 52.663 0 0 0 14.27-15.617 52.65 52.65 0 0 0 14.265 15.617 52.683 52.683 0 0 0-14.265 15.613zm0 0"
        fill="#3d5da8" opacity="1" data-original="#000000" class=""></path></g></svg>