<svg xmlns="http://www.w3.org/2000/svg" version="1.1" xmlns:xlink="http://www.w3.org/1999/xlink" width="20" height="20" x="0" y="0" viewBox="0 0 512 512" style="enable-background:new 0 0 512 512" xml:space="preserve" class=""><g><path d="M496 144.003h-86.112L350.304 24.835c-4-7.904-13.568-11.072-21.472-7.168-7.904 3.968-11.104 13.568-7.168 21.472l52.448 104.864H137.888l52.416-104.832c3.968-7.904.736-17.504-7.168-21.472-7.872-3.904-17.504-.736-21.44 7.136l-59.584 119.168H16c-8.832 0-16 7.168-16 16v64c0 8.832 7.168 16 16 16h19.52l60.96 243.872c1.792 7.136 8.192 12.128 15.52 12.128h288c7.328 0 13.728-4.992 15.52-12.128l60.96-243.872H496c8.832 0 16-7.168 16-16v-64c0-8.832-7.168-16-16-16zm-108.512 320H124.512l-56.032-224h375.04l-56.032 224zm92.512-256H32v-32h448v32z" fill="#ffffff" opacity="1" data-original="#000000"></path><path d="M256 304.003c-8.832 0-16 7.168-16 16v96c0 8.832 7.168 16 16 16s16-7.168 16-16v-96c0-8.832-7.168-16-16-16zM176 304.003c-8.832 0-16 7.168-16 16v96c0 8.832 7.168 16 16 16s16-7.168 16-16v-96c0-8.832-7.168-16-16-16zM336 304.003c-8.832 0-16 7.168-16 16v96c0 8.832 7.168 16 16 16s16-7.168 16-16v-96c0-8.832-7.168-16-16-16z" fill="#ffffff" opacity="1" data-original="#000000"></path></g></svg>