<?xml version="1.0" encoding="UTF-8"?> <svg xmlns="http://www.w3.org/2000/svg" viewBox="0 0 65 50"><defs><style>.cls-1{fill:#3d5da8;}</style></defs><path class="cls-1" d="M32.5,39.46c-.15,0-.29-.04-.4-.1-.55-.31-13.34-7.73-14.89-16.13-.49-2.65.18-5.11,1.99-7.32,1.83-2.25,4.39-3.55,7.03-3.56,2.33,0,4.51.83,6.2,2.35l.07.06.07-.06c1.69-1.51,3.89-2.35,6.2-2.35,2.63.02,5.19,1.32,7.03,3.56,1.8,2.2,2.47,4.66,1.99,7.32-1.56,8.4-14.34,15.82-14.88,16.13-.12.07-.25.1-.4.1ZM26.25,13.93c-2.12.02-4.29,1.13-5.81,2.98-1.52,1.86-2.06,3.83-1.65,6.02,1.28,6.89,11.61,13.51,13.66,14.77l.05.03.05-.03c2.06-1.26,12.4-7.89,13.66-14.77.4-2.19-.14-4.16-1.64-6.02-1.51-1.85-3.68-2.97-5.81-2.98-2.18,0-4.23.9-5.67,2.48-.14.15-.36.24-.58.24s-.44-.09-.58-.24c-1.45-1.57-3.5-2.48-5.62-2.48h-.05Z"></path><path class="cls-1" d="M43.46,23.22s-.09,0-.14-.02c-.21-.04-.4-.16-.52-.33-.12-.17-.17-.38-.13-.59.21-1.15-.06-2.07-.9-3.1-.84-1.03-2-1.66-3.09-1.67-.43,0-.79-.37-.79-.8,0-.44.36-.79.81-.79,1.57,0,3.17.85,4.29,2.26,1.14,1.4,1.53,2.79,1.23,4.39-.07.38-.4.65-.78.65Z"></path><path class="cls-1" d="M32.5,8.54c-.44,0-.8-.36-.8-.8v-3.35c0-.44.36-.8.8-.8s.8.36.8.8v3.35c0,.44-.36.8-.8.8Z"></path><path class="cls-1" d="M18.35,12.55c-.21,0-.41-.08-.56-.23l-2.37-2.37c-.15-.15-.23-.35-.23-.56s.08-.41.23-.56c.15-.15.35-.23.56-.23s.41.08.56.23l2.36,2.37c.15.15.23.35.23.56s-.08.41-.23.56c-.16.15-.36.23-.57.23Z"></path><path class="cls-1" d="M11,26.69c-.44,0-.8-.36-.8-.8s.36-.8.8-.8h3.35c.44,0,.8.36.8.8s-.36.8-.8.8h-3.35Z"></path><path class="cls-1" d="M17.31,40.09c-.22,0-.41-.08-.57-.23-.31-.31-.31-.81,0-1.12l2.36-2.36c.15-.15.35-.23.57-.23s.42.08.57.23c.15.15.23.35.23.56s-.08.41-.23.56l-2.37,2.37c-.16.15-.36.23-.57.23Z"></path><path class="cls-1" d="M32.5,46.4c-.44,0-.8-.36-.8-.8v-3.35c0-.44.36-.8.8-.8s.8.36.8.8v3.35c0,.44-.36.8-.8.8Z"></path><path class="cls-1" d="M47.7,40.09c-.22,0-.41-.08-.57-.23l-2.37-2.37c-.15-.15-.23-.35-.23-.56s.08-.41.23-.56.35-.23.56-.23.41.08.56.23l2.37,2.37c.31.31.31.81,0,1.12-.16.15-.36.23-.57.23Z"></path><path class="cls-1" d="M50.65,26.69c-.44,0-.8-.36-.8-.8s.36-.8.8-.8h3.35c.44,0,.8.36.8.8s-.36.8-.8.8h-3.35Z"></path><path class="cls-1" d="M46.65,12.54c-.22,0-.42-.08-.57-.23-.15-.15-.23-.35-.23-.56s.08-.41.23-.56l2.37-2.36c.15-.15.35-.23.56-.23s.41.08.56.23c.31.31.31.81,0,1.12l-2.36,2.36c-.16.15-.35.23-.57.23Z"></path></svg> 