<?xml version="1.0" encoding="UTF-8"?> <svg xmlns="http://www.w3.org/2000/svg" id="Calque_1" viewBox="0 0 65 50"><defs><style>.cls-1{fill:#3d5da8;}</style></defs><path class="cls-1" d="M32.5,10.03c-.39,0-.71-.32-.71-.71v-4.87c0-.39.32-.71.71-.71s.71.32.71.71v4.87c0,.39-.32.71-.71.71Z"></path><path class="cls-1" d="M26.12,12.04c-.24,0-.47-.12-.6-.33l-2.55-4.04c-.21-.33-.11-.77.22-.97.11-.07.24-.11.38-.11.24,0,.47.12.6.33l2.55,4.04c.21.33.11.77-.22.97-.11.07-.24.11-.38.11Z"></path><path class="cls-1" d="M38.88,12.04c-.13,0-.26-.04-.38-.11-.16-.1-.27-.26-.31-.44-.04-.18,0-.37.09-.53l2.54-4.04c.13-.21.35-.33.6-.33.13,0,.26.04.38.11.33.21.43.64.22.97l-2.54,4.04c-.13.21-.35.33-.6.33Z"></path><path class="cls-1" d="M28.01,46.25c-.91,0-1.75-.4-2.32-1.11-.49-.61-.71-1.38-.63-2.16l.03-.25-.25-.03c-.78-.09-1.48-.48-1.97-1.09-.49-.61-.71-1.38-.63-2.16l.03-.25-.25-.03c-.78-.09-1.48-.48-1.97-1.09-.49-.61-.71-1.38-.63-2.16l.03-.25-.25-.03c-.78-.09-1.48-.48-1.97-1.09-.49-.62-.72-1.39-.63-2.18.07-.59.3-1.14.69-1.59l.13-.15-.12-.16c-.45-.59-1.1-1.09-1.88-1.44l-.21-.09-.38.68c-.38.66-1.09,1.08-1.86,1.08-.36,0-.72-.09-1.04-.27l-2.56-1.42c-.49-.27-.85-.73-1.01-1.28-.16-.55-.09-1.13.2-1.63l7.38-13.05c.38-.66,1.09-1.08,1.86-1.08.36,0,.72.09,1.04.27l2.56,1.42c.5.27.85.73,1.01,1.27.14.51.09,1.05-.14,1.52l-.13.27,2.87.83.1-.12c.64-.71,1.82-1.12,3.7-1.29l4.26-.38c.28-.03.53-.05.79-.05.6,0,1.18.12,2.01.41l2.5.87c.29.1.54.19.73.27.47.18.63.24.82.24.24,0,.6-.09,1.24-.28l1.7-.49-.13-.27c-.24-.47-.29-1.02-.15-1.53.16-.55.51-1,1.01-1.28l2.56-1.42c.32-.17.67-.27,1.04-.27.77,0,1.48.41,1.86,1.08l1.5,2.65c.09.16.12.35.07.54-.05.18-.17.33-.33.43-.11.06-.23.09-.35.09-.25,0-.49-.14-.61-.36l-1.5-2.65c-.13-.22-.37-.36-.63-.36-.12,0-.25.03-.36.09l-2.56,1.42c-.16.09-.28.25-.33.43-.03.1-.06.32.07.55l7.38,13.05c.13.22.37.36.63.36.12,0,.25-.03.35-.09l2.56-1.42c.22-.12.3-.32.33-.42.03-.11.06-.32-.06-.55l-1.66-2.93c-.09-.16-.12-.35-.07-.54.05-.18.17-.33.33-.43.11-.06.23-.09.35-.09.25,0,.49.14.61.36l1.66,2.93c.28.5.35,1.08.19,1.63-.16.55-.51,1-1.01,1.27l-2.56,1.42c-.32.17-.67.27-1.04.27-.77,0-1.49-.41-1.86-1.08l-.38-.68-.21.09c-.78.34-1.43.84-1.88,1.44l-.12.16.13.15c.38.45.62,1,.69,1.59.09.79-.14,1.56-.63,2.18-.49.61-1.19,1-1.97,1.09l-.25.03.03.25c.08.78-.14,1.55-.63,2.16-.49.61-1.19,1-1.97,1.09l-.25.03.03.25c.08.78-.14,1.55-.63,2.16-.49.62-1.2,1-1.99,1.09-.11.01-.23.02-.34.02-.33,0-.66-.05-.96-.16l-.27-.09-.05.28c-.09.47-.29.9-.59,1.28-.57.71-1.41,1.11-2.32,1.11-.68,0-1.32-.22-1.85-.65l-1.33-1.06-.16.18c-.12.14-.25.27-.4.39l-2,1.6c-.53.42-1.17.65-1.85.65ZM30.01,40.14c-.35,0-.69.12-.97.34l-2,1.6c-.32.26-.52.63-.57,1.04-.05.41.07.82.33,1.14.3.37.74.58,1.21.58.35,0,.7-.12.97-.34l2-1.6c.32-.26.53-.63.57-1.04.05-.41-.07-.82-.33-1.14-.3-.37-.74-.58-1.21-.58ZM27.52,29.16c.91,0,1.75.4,2.32,1.11.49.62.72,1.39.63,2.18-.06.51-.24.99-.54,1.4l-.18.25.27.13c.41.19.77.47,1.06.83.49.62.72,1.39.63,2.18-.06.51-.24.99-.54,1.4l-.18.25.27.13c.42.19.77.47,1.06.83.47.59.7,1.33.64,2.08v.13s1.67,1.34,1.67,1.34c.27.22.62.34.97.34.48,0,.92-.21,1.21-.58.53-.66.42-1.64-.24-2.18l-1.39-1.11c-.08-.06-.15-.15-.19-.24-.1-.2-.1-.44,0-.63.02-.04.05-.08.08-.12.14-.17.34-.27.55-.27.16,0,.31.05.44.15l2.77,2.22c.28.22.61.34.96.34.06,0,.12,0,.18,0,.42-.05.79-.25,1.04-.57.26-.32.38-.73.33-1.14-.05-.41-.25-.78-.57-1.04l-2.77-2.21c-.15-.12-.24-.29-.26-.47-.02-.19.03-.37.15-.52.13-.17.34-.27.55-.27.16,0,.31.05.44.15l2.77,2.21c.27.22.62.34.97.34.48,0,.92-.21,1.22-.58.53-.67.42-1.64-.25-2.18l-2.56-2.04c-.15-.12-.24-.29-.26-.47-.02-.19.03-.37.15-.52.13-.17.33-.27.55-.27.16,0,.31.05.44.15l2.56,2.04c.28.22.61.34.97.34.06,0,.12,0,.18,0,.41-.05.78-.25,1.04-.57.26-.32.38-.73.33-1.14-.04-.41-.25-.78-.57-1.04l-3.1-2.48c-1.35-1.08-3.11-2.46-4.79-3.67l-.77-.56c-1.93-1.41-3.1-2.25-5.01-2.25-.51,0-1.06.06-1.68.19-.59.12-1.17.18-1.71.18-2.46,0-4.18-1.23-4.7-3.39-.04-.15-.06-.3-.07-.44l-.02-.17-3.16-.91-5.49,9.72.24.11c.89.42,1.65,1.01,2.2,1.71l.16.2,2.76-2.2c.53-.42,1.17-.65,1.85-.65.91,0,1.75.41,2.32,1.11.29.36.48.77.58,1.21l.06.29.28-.12c.37-.16.76-.23,1.16-.23ZM28.77,35.36c-.35,0-.7.12-.97.34l-3.58,2.86c-.32.26-.53.63-.57,1.04-.05.41.07.82.33,1.14.26.32.63.52,1.04.57.06,0,.12,0,.18,0,.35,0,.69-.12.97-.34l3.58-2.86c.32-.26.53-.62.57-1.04.05-.42-.07-.82-.33-1.14-.3-.37-.74-.58-1.21-.58ZM27.52,30.57c-.35,0-.69.12-.97.34l-5.15,4.12c-.32.26-.53.63-.57,1.04s.07.82.33,1.14c.3.37.74.58,1.21.58.35,0,.7-.12.97-.34l5.15-4.12c.32-.26.53-.63.57-1.04.05-.41-.07-.82-.33-1.14-.3-.37-.74-.58-1.22-.58ZM23.13,28.31c-.35,0-.69.12-.97.34l-3.58,2.86c-.32.26-.53.62-.57,1.04-.05.41.07.82.33,1.14.26.32.63.52,1.04.57.06,0,.12,0,.18,0,.35,0,.69-.12.96-.34l3.56-2.85c.34-.27.54-.64.59-1.05.05-.41-.07-.82-.33-1.14-.3-.37-.74-.58-1.21-.58ZM32.74,21.14c2.38,0,3.91,1.11,5.85,2.52l.76.55c1.74,1.25,3.6,2.72,4.85,3.71l2.28,1.82.16-.2c.55-.7,1.31-1.3,2.2-1.71l.24-.11-5.49-9.7-2.03.59c-.76.22-1.23.33-1.63.33s-.75-.11-1.32-.33c-.2-.08-.42-.16-.7-.26l-2.5-.87c-.68-.24-1.12-.33-1.56-.33-.2,0-.41.02-.65.04l-4.27.38c-1.94.17-2.61.58-2.83.89-.08.11-.18.31-.08.72.37,1.51,1.52,2.3,3.34,2.3.57,0,1.08-.08,1.42-.15.71-.14,1.35-.21,1.96-.21ZM17.8,13.41c-.26,0-.5.14-.63.36l-7.38,13.05c-.09.17-.12.36-.07.55.03.11.11.3.33.43l2.56,1.42c.11.06.23.09.35.09.26,0,.51-.14.63-.36l7.38-13.05c.09-.17.12-.36.07-.55-.05-.19-.17-.33-.33-.42l-2.56-1.42c-.11-.06-.23-.09-.36-.09Z"></path><path class="cls-1" d="M52.05,20.51c-.39,0-.71-.32-.71-.7s.32-.71.71-.71.71.32.71.71-.32.71-.71.71Z"></path></svg> 