<?xml version="1.0" encoding="UTF-8"?> <svg xmlns="http://www.w3.org/2000/svg" viewBox="0 0 65 50"><defs><style>.cls-1{fill:#3c5da8;}</style></defs><path class="cls-1" d="M23.67,44.47s.05,0,.08,0c.2-.04.33-.22.3-.44-.08-.58-.31-1.17-.71-1.84-.97-1.64-2.4-3.03-4.14-4.03l-.11-.04-.59.11.37.34c.07.07.15.13.24.21.2.2.42.41.63.62,1.47,1.43,2.99,2.92,3.54,4.8.04.17.2.28.37.28Z"></path><path class="cls-1" d="M16.95,24.34c.1.26.43.23,1.07.06h.01c8.43-2.78,15.98-4.36,23.08-4.83,2.44-.15,4.81-.16,7.04-.02.59.04.94.1,1.13.15-.43.77-2.18,3.77-4.32,5.28-.82.58-3.08,1.08-4.04,1.29l-3.33.75,3.34.13c.55.02,1.08.03,1.58.03.18,0,.36,0,.54,0,2.69-.05,3.62-.56,6.18-3.42,1.7-1.89,2.7-4.01,3.15-5.11.1-.25.07-.52-.07-.74-.14-.21-.36-.33-.61-.33-.32,0-.72,0-1.18-.02-2.34-.05-6.7-.16-13.44.65-5.78.69-11.98,2.43-19.52,5.48-.42.22-.71.39-.61.66Z"></path><path class="cls-1" d="M11.92,27c-.19.06-.34.19-.4.35-.06.14-.05.28.03.42.12.2.31.26.52.26.15,0,.31-.03.45-.06.11-.02.22-.04.35-.05,1.21-.17,2.45-.33,3.68-.48.4-.05.8-.09,1.21-.13,1.21-.13,2.42-.23,3.75-.33,5.14-.41,9.28-.45,13.06-.11h.09c.46,0,.9,0,1.09-.23.08-.09.11-.2.09-.32l-.04-.11c-.28-.41-1.04-.58-1.65-.72-.11-.02-.21-.05-.31-.07-5.65-1.24-12.1-.98-19.19.74-.95.24-1.86.52-2.73.82Z"></path><path class="cls-1" d="M51.2,25.95c-.3.04-.59.07-.88.1-.54.06-1.06.12-1.61.21-1.17.14-1.75.43-1.73.87.02.46.74.76,1.94.8h.14c.98,0,2.1-.38,2.79-.94.27-.2.46-.38.48-.59.01-.1-.02-.21-.08-.27-.06-.07-.23-.29-1.06-.18Z"></path><path class="cls-1" d="M25.27,20.18l.06-.04c1.88-1.19,4.01-2.28,5.84-3,2.08-.85,4.08-1.39,6.29-1.95h0c.96-.27,1.74-.48,2.47-.66l.14-.04c.64-.16,1.19-.3,1.5.03.26.27.46.63.65.97.07.13.15.26.23.39.38.58.84,1.21,1.58,1.27l.47.03-.24-.41c-.4-.69-.82-1.37-1.23-2.05l-.43-.7c-.24-.47-.57-.95-1.23-.97-1.05.05-2.14.3-3.2.54-.33.08-.66.15-.99.22-1.5.31-3.01.69-4.48,1.13-3.42,1.01-6.12,2.51-8,4.46l-.05.05h-.37l.27.39c.15.22.36.33.61.33h.07Z"></path><path class="cls-1" d="M22.74,28.83c1.75.42,3.21,1.39,4.01,2.67h0c.1.16.18.33.27.52.09.18.17.36.29.54.41.46,1.01.64,1.69.64,1.66,0,3.85-1.07,5.2-1.73.19-.09.36-.18.52-.25,1.97-1.02,3.44-1.83,4.46-2.49.12-.07.18-.22.14-.34-.02-.09-.08-.16-.17-.19l-.14-.04-.09.03c-1.38.44-2.85,1.02-4.28,1.58-.9.36-1.79.71-2.61,1.01-.21.07-.42.14-.64.22-.99.35-2.02.71-2.89.58-.01,0-.02-.01-.04-.02l-.13-.24c-1.04-1.92-3.25-3.16-5.49-3.09-.17-.03-.31.09-.34.25-.03.16.08.32.23.35Z"></path><path class="cls-1" d="M46.94,6.16C40.21.98,31.59-.17,23.3,3c-5.57,2.13-11.72,8.77-13.43,14.5-2.33,7.83-.94,15.86,3.83,22.03.04.06.32.41,1.04,0l.17-.1c.18-.1.36-.21.54-.29.71-.32,1.46-.59,2.18-.86.78-.29,1.59-.58,2.36-.94l.08-.04c.09-.04.22-.11.24-.11.07-.02.16-.02.19.01.27.41.71.95,1.4.97.78.07,1.52-.49,1.66-1.24l.07-.29c.74-2.87.07-5.98-1.67-7.87-.09-.14-.27-.18-.42-.09-.14.09-.19.27-.11.4.61,1.16.96,2.56,1.02,4.04.04,1.02-.08,2.09-.36,3.09-.02.04-.03.11-.05.18-.01.05-.03.13-.01.16-.04-.03-.1-.12-.14-.18-.07-.1-.14-.2-.21-.25-.48-.5-1.26-.67-1.91-.39-.78.41-2.12,1.16-3.41,1.87l-1.59.88c-.12.07-.27.03-.35-.07-2.96-3.98-4.49-8.73-4.43-13.72.15-10.95,9.46-21.06,20.33-22.08,6.74-.64,13.34,1.75,18.11,6.53s7.12,11.4,6.45,18.14c-1.13,11.43-11.04,20.3-22.56,20.23-2.66-.02-5.27-.5-7.75-1.44.27-.13.51-.25.72-.37l.39-.21c1-.58,1.44-1.56,1.14-2.55-.04-.14-.11-.31-.18-.48l1.11-.65c2.29-1.38,4.66-2.8,6.64-4.8,1.1-1.4,2.09-2.56,3.34-3.63.73-.63,1.45-1.16,2.22-1.63.3-.19.61-.38.9-.59,2.75-1.98,2.89-2.39,2.93-2.53l.16-.45-.46.13c-.67.19-1.22.7-1.66,1.11-.17.15-.32.3-.46.41-.41.31-.88.55-1.41.81-1.02.46-2.02,1.06-2.97,1.79-.89.66-1.75,1.44-2.58,2.32l-.31.36c-.64.74-1.25,1.44-2.04,1.99-2.04,1.52-4.26,2.84-6.41,4.11-.99.58-.69,1.31-.44,1.9.27.65.49,1.17-.47,1.78l-.2.13c-.59.36-1.4.86-1.36,1.63v.14s.13.07.13.07c1.94,1.05,4.34,1.46,6.44,1.76.76.09,1.54.14,2.32.15.14,0,.28,0,.41,0,12.04,0,22.38-9.24,23.63-21.2.87-8.31-2.56-16.31-9.17-21.4Z"></path></svg>