<?xml version="1.0" encoding="UTF-8"?> <svg xmlns="http://www.w3.org/2000/svg" viewBox="0 0 65 50"><defs><style>.cls-1{fill:#3d5da8;}</style></defs><path class="cls-1" d="M50.2,26.19c-.36-9.21-7.78-16.64-17-17.01v-1.55c.82-.29,1.42-1.08,1.42-2,0-1.17-.95-2.13-2.13-2.13s-2.13.95-2.13,2.13c0,.92.59,1.71,1.42,2v1.55c-3.8.15-7.48,1.53-10.43,3.92-.3.25-.35.69-.11,1,.25.3.69.35,1,.11,2.89-2.34,6.53-3.62,10.25-3.62,8.75,0,15.91,6.93,16.29,15.59H16.21c.15-3.47,1.42-6.84,3.61-9.54.25-.3.2-.75-.11-1-.3-.25-.75-.2-1,.11-2.39,2.96-3.77,6.64-3.92,10.44-1.07.11-1.9,1.02-1.9,2.11,0,1.17.95,2.13,2.13,2.13h8.55c-.18.35-.29.76-.29,1.18v14.18c0,.39.32.71.71.71h13.23c.39,0,.71-.32.71-.71v-1.89c0-.39-.32-.71-.71-.71s-.71.32-.71.71v1.18h-11.81v-4.25h12.52s.05,0,.07,0c.23-.02.43-.15.55-.36l4.97-8.84s.02-.04.03-.05c.16-.36.2-.76.12-1.14h7.03c1.17,0,2.13-.95,2.13-2.13,0-1.1-.84-2-1.91-2.12ZM32.5,6.34c-.39,0-.71-.32-.71-.71s.32-.71.71-.71.71.32.71.71-.32.71-.71.71ZM41.55,30.96l-4.74,8.45h-12.11v-7.8c0-.65.53-1.18,1.18-1.18s1.18.53,1.18,1.18v3.78c0,.29.17.55.44.65.26.11.57.05.77-.15l4.55-4.55c.59-.59,1.38-.92,2.21-.92h6.16c.19,0,.29.12.33.18.03.05.1.19.04.35ZM28.2,30.43h3.54l-3.25,3.25v-2.07c0-.43-.1-.83-.29-1.18ZM49.98,29.02H15.02c-.39,0-.71-.32-.71-.71s.32-.71.71-.71h34.97c.39,0,.71.32.71.71s-.32.71-.71.71Z"></path><circle class="cls-1" cx="28.01" cy="42.72" r=".71"></circle></svg> 