<?xml version="1.0" encoding="UTF-8"?>
<svg xmlns="http://www.w3.org/2000/svg" viewBox="0 0 65 50">
    <defs>
        <style>.cls-1{fill:#3d5da8;}</style>
    </defs>
    <g id="g2013">
        <g id="g2015">
            <g id="g2017">
                <g id="g2023">
                    <path class="cls-1"
                          d="M19.15,29.12c-.11,0-.21-.03-.31-.08-.3-.17-.4-.55-.23-.85,5.42-9.44,15.94-21.49,35.27-25.29.34-.06.67.15.73.49s-.15.67-.49.73c-18.87,3.72-29.13,15.48-34.43,24.69-.12.2-.33.31-.54.31Z"></path>
                </g>
                <g id="g2027">
                    <path class="cls-1"
                          d="M12.88,47.12c-.14,0-.29-.01-.44-.04-1.35-.24-2.27-1.54-2.03-2.89.03-.18.78-4.39,3.2-10.14.13-.32.5-.47.82-.33.32.13.47.5.33.82-2.37,5.62-3.09,9.7-3.12,9.87-.12.68.34,1.33,1.02,1.45.71.12,1.33-.35,1.45-1.02.05-.27,1.21-6.54,5.24-14.12.32-.61.09-1.37-.52-1.69-.29-.16-.63-.19-.95-.09-.32.1-.58.31-.74.61-.46.86-.9,1.75-1.32,2.64-.15.31-.52.44-.83.3-.31-.15-.45-.52-.3-.83.43-.91.88-1.81,1.35-2.7.31-.59.84-1.02,1.48-1.22.64-.19,1.31-.13,1.91.18,1.22.65,1.68,2.17,1.03,3.38-3.94,7.41-5.1,13.69-5.11,13.75-.21,1.2-1.25,2.07-2.46,2.07Z"></path>
                </g>
                <g id="g2031">
                    <path class="cls-1"
                          d="M21.49,37.68c-1.92,0-3.48-1.56-3.48-3.48s1.56-3.49,3.48-3.49,3.48,1.56,3.48,3.49-1.56,3.48-3.48,3.48ZM21.49,31.96c-1.23,0-2.23,1-2.23,2.24s1,2.23,2.23,2.23,2.23-1,2.23-2.23-1-2.24-2.23-2.24Z"></path>
                </g>
                <g id="g2035">
                    <path class="cls-1"
                          d="M24.29,39.97c-.22,0-.44-.12-.55-.33l-2.8-5.15c-.17-.3-.05-.68.25-.85.3-.17.68-.05.85.25l2.8,5.15c.17.3.05.68-.25.85-.1.05-.2.08-.3.08Z"></path>
                </g>
                <g id="g2039">
                    <path class="cls-1"
                          d="M24.29,40.63c-.71,0-1.29-.58-1.29-1.29s.58-1.29,1.29-1.29,1.29.58,1.29,1.29-.58,1.29-1.29,1.29ZM24.29,39.3l.04.04s-.02-.04-.04-.04Z"></path>
                </g>
                <g id="g2043">
                    <path class="cls-1"
                          d="M46.86,28.47c-.17,0-.34-.07-.47-.21-.23-.26-.21-.65.05-.88,1.47-1.32,3.61-3.88,3.1-5.15-.38-.93-1.63-.91-3.66-.75-2.15.17-4.82.37-5.76-2.03-2.07-5.31,11.92-15.34,13.52-16.46.28-.2.67-.13.87.15.2.28.13.67-.15.87-4.13,2.9-14.53,11.26-13.08,14.98.56,1.44,2.15,1.43,4.5,1.24,1.95-.15,4.17-.32,4.91,1.53.99,2.48-2.97,6.14-3.43,6.54-.12.11-.27.16-.42.16Z"></path>
                </g>
                <g id="g2047">
                    <path class="cls-1"
                          d="M43.02,31.21c-.21,0-.41-.11-.53-.3l-.27-.44c-.18-.29-.09-.68.2-.86.29-.18.68-.09.86.2l.27.44c.18.29.09.68-.2.86-.1.06-.22.09-.33.09Z"></path>
                </g>
                <g id="g2051">
                    <path class="cls-1"
                          d="M42.67,35.79c-.09,0-.18-.02-.27-.06-2.85-1.35-4.32-3.92-4.28-7.45,0-.34.28-.64.63-.62.35,0,.62.29.62.63-.04,3.04,1.16,5.16,3.56,6.3.31.15.44.52.3.83-.11.23-.33.36-.57.36Z"></path>
                </g>
                <g id="g2055">
                    <path class="cls-1"
                          d="M34.33,43.81c-.17,0-.33-.07-.46-.2-1.78-1.89-2.67-4.73-2.37-7.59.29-2.78,1.64-5.22,3.73-6.68,5.12-3.59,11.5-2.18,11.77-2.12.31.07.51.36.48.67-.12,1.13-.34,2.17-.67,3.08-.12.33-.47.49-.8.38-.32-.12-.49-.48-.38-.8.24-.66.42-1.41.53-2.21-1.6-.24-6.38-.67-10.22,2.02-1.79,1.25-2.95,3.36-3.2,5.78-.26,2.5.51,4.97,2.04,6.6.24.25.22.65-.03.88-.12.11-.27.17-.43.17Z"></path>
                </g>
                <g id="g2059">
                    <path class="cls-1"
                          d="M46.23,47.12c-1,0-2.15-.33-3.26-1.33-.67.2-2.13.51-4.12.28-.97-.12-1.88-.38-2.7-.78-.31-.15-.44-.52-.29-.83.15-.31.52-.44.83-.29.7.34,1.48.56,2.31.66,2.36.28,3.88-.32,3.89-.33.24-.1.51-.04.68.14,1.32,1.35,2.63,1.33,3.44,1.13-.68-.69-1.59-1.78-1.79-2.84-.23-1.19,0-2.36.27-3.19-1.73.65-2.34,2.34-2.37,2.42-.06.17-.19.31-.36.37-.53.21-1.11.33-1.73.36-1.64.08-3.04-.94-3.49-2.51-.45-1.56.2-3.14,1.61-3.95.36-.2.66-.36.96-.52,1.65-.88,3.21-1.71,4.38-3.23.21-.27.6-.32.88-.12.27.21.33.6.12.88-1.33,1.73-3.08,2.67-4.78,3.57-.29.16-.58.31-.87.47-1.17.67-1.3,1.78-1.08,2.55.22.77.96,1.63,2.24,1.6.38-.02.75-.08,1.08-.18.36-.8,1.59-2.96,4.4-3.2.22-.01.45.09.57.28s.14.43.03.64c0,.02-.93,1.82-.6,3.53.19,1.01,1.58,2.37,2.1,2.8.15.13.23.32.22.52-.01.2-.12.38-.28.49-.48.31-1.3.62-2.27.62Z"></path>
                </g>
                <g id="g2063">
                    <path class="cls-1"
                          d="M32.07,37.92c-.13,0-.26-.04-.38-.12-1.72-1.29-2.41-3.42-2.32-4.95.06-1.04.46-1.83,1.13-2.22,1.22-.71,2.87-.6,4.05-.39.23.04.41.2.48.42s.02.46-.14.62c-1.44,1.51-2.25,3.7-2.21,6,0,.24-.13.46-.34.57-.09.05-.19.07-.28.07ZM32.9,31.32c-.73,0-1.33.13-1.76.38-.29.17-.48.62-.51,1.21-.05.84.22,1.98.9,2.92.2-1.66.8-3.22,1.72-4.51-.11,0-.23,0-.34,0Z"></path>
                </g>
            </g>
        </g>
    </g>
</svg>