<?xml version="1.0" encoding="UTF-8"?>
<svg xmlns="http://www.w3.org/2000/svg" viewBox="0 0 65 50">
    <defs>
        <style>.cls-1{fill:#3d5da8;}</style>
    </defs>
    <path class="cls-1"
          d="M32.5,3.5c-11.83,0-21.5,9.6-21.5,21.5s9.67,21.5,21.5,21.5,21.5-9.67,21.5-21.5S44.33,3.5,32.5,3.5ZM32.5,45.07c-11.04,0-20.07-9.03-20.07-20.07S21.46,4.93,32.5,4.93s20.07,9.03,20.07,20.07-9.03,20.07-20.07,20.07Z"></path>
    <path class="cls-1"
          d="M32.5,10.67c-7.88,0-14.33,6.45-14.33,14.33,0,.79.07,1.58.21,2.29,0,.36.43.64.79.57.36,0,.64-.43.57-.79-.07-.64-.14-1.36-.14-2.08,0-7.1,5.81-12.9,12.9-12.9s12.9,5.81,12.9,12.9-5.81,12.9-12.9,12.9c-3.21,0-6.22-1.12-8.59-3.3l4.03-4.03c1.28,1.05,2.87,1.6,4.56,1.6,3.94,0,7.17-3.22,7.17-7.17s-3.23-7.17-7.17-7.17-7.17,3.23-7.17,7.17c0,.43,0,.79.14,1.15,0,.36.43.64.79.57.36,0,.64-.43.57-.79-.07-.29-.07-.64-.07-.93,0-3.15,2.58-5.73,5.73-5.73s5.73,2.58,5.73,5.73-2.58,5.73-5.73,5.73c-1.33,0-2.55-.41-3.55-1.18l2.09-2.09c.43.26.93.4,1.46.4,1.58,0,2.87-1.29,2.87-2.87s-1.29-2.87-2.87-2.87-2.87,1.29-2.87,2.87c0,.53.15,1.03.4,1.46l-2.62,2.62h0l-5.02,5.02h0l-2.58,2.58c-.29.29-.29.72,0,1,.14.14.29.21.5.21s.36-.07.5-.21l2.08-2.08c2.6,2.41,6.04,3.73,9.6,3.73,7.88,0,14.33-6.38,14.33-14.33,0-7.88-6.45-14.33-14.33-14.33ZM32.5,23.57c.79,0,1.43.64,1.43,1.43s-.64,1.43-1.43,1.43c-.36,0-.68-.13-.94-.35-.02-.03-.04-.05-.07-.08s-.05-.05-.08-.07c-.22-.25-.35-.58-.35-.94,0-.79.64-1.43,1.43-1.43Z"></path>
    <path class="cls-1"
          d="M18.88,17.12c0-.79-.64-1.43-1.43-1.43s-1.43.64-1.43,1.43.64,1.43,1.43,1.43,1.43-.64,1.43-1.43Z"></path>
    <path class="cls-1"
          d="M38.23,31.45c0,.79.64,1.43,1.43,1.43s1.43-.64,1.43-1.43-.64-1.43-1.43-1.43-1.43.65-1.43,1.43Z"></path>
    <path class="cls-1"
          d="M41.82,12.82c.79,0,1.43-.64,1.43-1.43s-.64-1.43-1.43-1.43-1.43.64-1.43,1.43.64,1.43,1.43,1.43Z"></path>
</svg>