<svg height="64" viewBox="0 0 512 512" width="64" xmlns="http://www.w3.org/2000/svg" fill="currentColor">
    <path d="m445.058594 356.011719c-3.460938-44.203125-14.4375-88.023438-32.714844-130.417969-15.765625-36.566406-36.957031-72.152344-62.980469-105.757812-35.015625-45.222657-69.011719-74.363282-82.59375-85.230469v-34.605469h-66.675781v29.964844h36.710938v24.3125l-167.714844 289.328125h167.714844v26.894531l-236.804688 16.476562 34.171875 124.4375h359.703125l3.023438-1.417968c80.539062-37.777344 108.25-134.109375 109.390624-138.195313l5.710938-20.449219zm-323.960938-42.371094 115.707032-199.609375v199.609375zm145.671875-239.46875c15.785157 14.433594 37.550781 36.332031 59.472657 64.75 36.789062 47.691406 81.363281 123.8125 88.933593 219.167969l-148.40625 10.324218zm120.328125 407.277344h-330.078125l-18.433593-67.117188 431.21875-30.007812c-11.597657 27.222656-37.265626 74.359375-82.707032 97.125zm0 0"/>
</svg>